<?xml version="1.0" standalone="yes"?>
<svg xmlns="http://www.w3.org/2000/svg" width="4198" height="2051">
<path style="fill:#ffffff; stroke:none;" d="M0 0L0 2051L1231 2051L1231 2050C1042.7 2050 848.95 2008.9 676 1934.28C535.801 1873.79 401.447 1791.45 293 1683C206.064 1596.06 136.859 1500.01 82.2477 1390C42.0804 1309.08 17.5512 1217.47 6.84491 1128C-1.92973 1054.67 -1.30744 980.173 8.8696 907C16.8254 849.798 30.9515 793.387 50.3079 739C189.623 347.559 577.425 103.118 971 27.1968C1052.99 11.3817 1137.54 1 1221 1L1189 0L1117 0L867 0L0 0z"/>
<path style="fill:#ceb077; stroke:none;" d="M1106 260C1169.85 251.93 1234.6 249.437 1299 251.015C1316.98 251.455 1335.02 253.851 1353 254L1353 3C1337.7 0.160156 1321.5 1.63916 1306 0.960693C1259.55 -1.07202 1213.35 0.932617 1167 2.96069C1152.3 3.60388 1137.69 5.28027 1123 6C1119.4 6.17639 1109.39 5.62463 1107.03 8.60339C1104.22 12.1477 1106 21.6802 1106 26L1106 74L1106 260z"/>
<path style="fill:#ffffff; stroke:none;" d="M1301 0L1301 1C1376.16 1 1451.93 9.88098 1526 22.75C1734.37 58.9514 1934.81 139.274 2106 264.151C2174.35 314.009 2237.72 371.732 2292.73 436C2310.75 457.054 2327.9 478.725 2344.37 501C2348.68 506.828 2356.15 523.099 2363.18 525.292C2366.23 526.242 2370.21 523.992 2373 522.95C2381.35 519.829 2389.65 516.548 2398 513.424C2428.22 502.124 2459 491.933 2490 483C2595.95 452.465 2704.2 430.795 2814 420.17C3058.51 396.509 3307.78 417.881 3543 490.974C3674.67 531.891 3803.4 591.679 3914 674.627C4028.45 760.464 4125.87 871.608 4171.67 1009C4186.18 1052.55 4197 1099.91 4197 1146L4198 1146L4198 0L1301 0z"/>
<path style="fill:#f9a12f; stroke:none;" d="M1353 3L1353 254C1424.13 255.467 1498.15 270.414 1567 287.627C1784.36 341.966 2003.78 457.682 2137 643C2146.48 639.406 2155.41 632.097 2164 626.681C2179.4 616.972 2195.1 607.735 2211 598.86C2259.82 571.608 2310.85 547.227 2363 527C2347.7 499.516 2325.47 474.105 2305.41 450C2259.43 394.747 2208.06 344.028 2152 298.999C1986.04 165.696 1790.22 79.0929 1583 33.5756C1508.8 17.276 1429.1 3 1353 3z"/>
<path style="fill:#a4af9e; stroke:none;" d="M726 369C753.047 358.506 778.814 344.766 806 334.424C901.129 298.237 1004.05 268.047 1106 260L1106 8C1074.72 8.02075 1041.83 14.8135 1011 19.9197C946.052 30.6783 882.058 45.3616 819 64.28C796.453 71.0444 774.292 78.8016 752 86.3325C745.755 88.4421 730.949 91.1682 727.028 96.6489C723.938 100.966 726 111.858 726 117L726 169L726 369z"/>
<path style="fill:#4aacd4; stroke:none;" d="M725 96C700.52 107.451 674.62 116.036 650 127.309C597.47 151.361 546.142 177.976 497 208.424C307.282 325.973 145.16 496.597 62.2037 706C36.2909 771.411 17.4625 840.181 8.28164 910C-0.648079 977.909 -1.64342 1046.87 5.16898 1115C33.0093 1393.44 204.293 1636.48 428 1796.42C494.163 1843.73 565.076 1884.46 639 1918.31C658.158 1927.08 677.43 1935.57 697 1943.4C706.269 1947.11 716.094 1952.52 726 1954L726 1754L726 1702C726 1696.8 728.045 1686.04 724.972 1681.64C721.416 1676.54 710.466 1673.49 705 1670.75C689.758 1663.13 674.785 1655.06 660 1646.58C612.076 1619.1 567.02 1587.61 524 1553C365.787 1425.72 245.917 1228.08 251.015 1020C255.563 834.348 343.028 667.188 476 540.039C523.751 494.38 577.427 453.726 634 419.601C655.029 406.916 676.408 394.986 698 383.309C705.614 379.191 718.649 375.883 724.397 369.363C727.708 365.606 726 356.681 726 352L726 305L726 158L726 116C726 109.846 727.395 101.707 725 96z"/>
<path style="fill:#ffffff; stroke:none;" d="M1980 1568C1962.22 1542.77 1938.65 1521.24 1920.42 1496C1877.95 1437.18 1845.13 1372.15 1826.15 1302C1792.12 1176.19 1810.13 1039.94 1870.78 925C1908.54 853.431 1959.91 790.862 2019 735.911C2054.54 702.862 2094.39 667.722 2137 644C2132.67 630.955 2118.8 618.453 2110.08 608C2086.31 579.507 2060.57 552.644 2033 527.831C1916.55 423.028 1777.27 349.872 1628 303.975C1293.2 201.032 904.864 244.128 609 434.692C423.16 554.39 268.653 750.938 253.09 978C250.253 1019.38 250.865 1060.8 256.282 1102C263.327 1155.58 277.399 1208.04 298.011 1258C331.88 1340.08 382.543 1411.47 441.83 1477C535.004 1579.98 660.641 1658.46 789 1709.8C958.539 1777.62 1145.56 1810.58 1328 1798.09C1499.05 1786.38 1666.63 1748.9 1820 1669.74C1876.7 1640.48 1928.31 1605.13 1980 1568z"/>
<path style="fill:#ceb077; stroke:none;" d="M2856 668L2959 662.039L3092 664L3092 413L2921 412.985L2876 415.015L2857.6 417.028L2856 433L2856 479L2856 668z"/>
<path style="fill:#f9a12f; stroke:none;" d="M3092 413L3092 664C3152.1 664.497 3213.74 674.103 3273 683.92C3448.2 712.941 3625.81 772.057 3769 879.627C3855.72 944.77 3941.96 1041.83 3946.96 1156C3952.49 1282.44 3866.17 1388.74 3770 1460.87C3634.34 1562.63 3470.19 1619.94 3305 1651.8C3235.74 1665.16 3162.6 1677 3092 1677L3092 1928C3173.09 1928 3256.23 1915.81 3336 1901.42C3393.3 1891.09 3450.05 1878.12 3506 1862C3550.27 1849.24 3594.12 1834.65 3637 1817.8C3872.79 1725.14 4117.49 1556.53 4182.37 1297C4191.04 1262.32 4196.4 1226.68 4197.96 1191C4199.49 1155.96 4196.8 1120.56 4191.08 1086C4145.23 809.235 3891.35 625.345 3647 527.6C3601.19 509.277 3554.41 493.332 3507 479.709C3448.44 462.883 3389.03 449.179 3329 438.75C3251.55 425.294 3170.66 413.008 3092 413z"/>
<path style="fill:#a4af9e; stroke:none;" d="M2497 744C2516.29 739.538 2535.03 731.436 2554 725.72C2589.94 714.892 2626.34 705.478 2663 697.424C2707.87 687.568 2753.41 679.957 2799 674.285C2817.84 671.94 2837.37 671.459 2856 668L2856 417C2825.43 417 2794.33 422.213 2764 425.845C2703.2 433.125 2642.59 443.994 2583 458.116C2561.9 463.116 2540.96 468.578 2520 474.116C2514.63 475.533 2501.37 476.805 2498.03 481.513C2495.05 485.713 2497 496.023 2497 501L2497 551L2497 744z"/>
<path style="fill:#4aacd4; stroke:none;" d="M2497 1861L2497 1667L2497 1617C2497 1612.06 2498.95 1601.81 2495.97 1597.65C2491.08 1590.81 2470.86 1587.23 2463 1584.19C2434.85 1573.29 2406.99 1561.25 2380 1547.75C2298.03 1506.77 2217.69 1458.34 2156.13 1389C2122.65 1351.29 2093.49 1308.56 2076.05 1261C2068.06 1239.21 2062.77 1216.13 2060.91 1193C2048.12 1033.76 2180.96 910.24 2305 833.424C2326.67 820.004 2349.22 808.144 2372 796.753C2411.42 777.043 2453.84 754.989 2497 745L2497 481C2429.9 494.887 2362.98 525.313 2301 553.691C2084.64 652.757 1874.37 818.456 1820.58 1062C1813.14 1095.67 1809 1130.55 1809 1165C1809 1207.45 1813.08 1249.63 1823.13 1291C1836.02 1344.07 1857.03 1394.79 1884.42 1442C1982.5 1610.99 2157.99 1729.3 2335 1803.58C2388.06 1825.84 2442.36 1843.23 2497 1861z"/>
<path style="fill:#ceb077; stroke:none;" d="M2361 527L2362 528L2361 527z"/>
<path style="fill:#a4af9e; stroke:none;" d="M2362 527L2363 528L2362 527z"/>
<path style="fill:#ceb077; stroke:none;" d="M2359 528L2360 529L2359 528z"/>
<path style="fill:#a4af9e; stroke:none;" d="M2360 528L2361 529L2360 528z"/>
<path style="fill:#ceb077; stroke:none;" d="M2356 529L2357 530L2356 529z"/>
<path style="fill:#a4af9e; stroke:none;" d="M2357 529L2358 530L2357 529z"/>
<path style="fill:#ceb077; stroke:none;" d="M2354 530L2355 531L2354 530z"/>
<path style="fill:#a4af9e; stroke:none;" d="M2355 530L2356 531L2355 530z"/>
<path style="fill:#ceb077; stroke:none;" d="M2351 531L2352 532L2351 531z"/>
<path style="fill:#a4af9e; stroke:none;" d="M2352 531L2353 532L2352 531z"/>
<path style="fill:#ceb077; stroke:none;" d="M2349 532L2350 533L2349 532z"/>
<path style="fill:#a4af9e; stroke:none;" d="M2350 532L2351 533L2350 532M2347 533L2348 534L2347 533z"/>
<path style="fill:#ceb077; stroke:none;" d="M2344 534L2345 535L2344 534z"/>
<path style="fill:#a4af9e; stroke:none;" d="M2345 534L2346 535L2345 534M2342 535L2343 536L2342 535z"/>
<path style="fill:#ceb077; stroke:none;" d="M2339 536L2340 537L2339 536z"/>
<path style="fill:#a4af9e; stroke:none;" d="M2340 536L2341 537L2340 536z"/>
<path style="fill:#ceb077; stroke:none;" d="M2337 537L2338 538L2337 537z"/>
<path style="fill:#a4af9e; stroke:none;" d="M2338 537L2339 538L2338 537M2335 538L2336 539L2335 538z"/>
<path style="fill:#ceb077; stroke:none;" d="M2332 539L2333 540L2332 539z"/>
<path style="fill:#a4af9e; stroke:none;" d="M2333 539L2334 540L2333 539M2330.67 540.333L2331.33 540.667L2330.67 540.333M2328 541L2329 542L2328 541z"/>
<path style="fill:#ceb077; stroke:none;" d="M2325 542L2326 543L2325 542z"/>
<path style="fill:#a4af9e; stroke:none;" d="M2326 542L2327 543L2326 542M2323 543L2324 544L2323 543M2321 544L2322 545L2321 544z"/>
<path style="fill:#ceb077; stroke:none;" d="M2318 545L2319 546L2318 545z"/>
<path style="fill:#a4af9e; stroke:none;" d="M2319 545L2320 546L2319 545z"/>
<path style="fill:#ceb077; stroke:none;" d="M2316 546L2317 547L2316 546z"/>
<path style="fill:#a4af9e; stroke:none;" d="M2314 547L2315 548L2314 547M2312 548L2313 549L2312 548z"/>
<path style="fill:#ceb077; stroke:none;" d="M2309 549L2310 550L2309 549z"/>
<path style="fill:#a4af9e; stroke:none;" d="M2310 549L2311 550L2310 549z"/>
<path style="fill:#ceb077; stroke:none;" d="M2307 550L2308 551L2307 550z"/>
<path style="fill:#a4af9e; stroke:none;" d="M2305 551L2306 552L2305 551M2303 552L2304 553L2303 552z"/>
<path style="fill:#ceb077; stroke:none;" d="M2300 553L2301 554L2300 553z"/>
<path style="fill:#a4af9e; stroke:none;" d="M2301 553L2302 554L2301 553z"/>
<path style="fill:#ceb077; stroke:none;" d="M2298 554L2299 555L2298 554z"/>
<path style="fill:#a4af9e; stroke:none;" d="M2299 554L2300 555L2299 554z"/>
<path style="fill:#ceb077; stroke:none;" d="M2296 555L2297 556L2296 555z"/>
<path style="fill:#a4af9e; stroke:none;" d="M2294 556L2295 557L2294 556M2292 557L2293 558L2292 557M2290 558L2291 559L2290 558z"/>
<path style="fill:#ceb077; stroke:none;" d="M2287 559L2288 560L2287 559z"/>
<path style="fill:#a4af9e; stroke:none;" d="M2288 559L2289 560L2288 559z"/>
<path style="fill:#ceb077; stroke:none;" d="M2285 560L2286 561L2285 560z"/>
<path style="fill:#a4af9e; stroke:none;" d="M2286 560L2287 561L2286 560z"/>
<path style="fill:#ceb077; stroke:none;" d="M2283 561L2284 562L2283 561M2281 562L2282 563L2281 562M2279 563L2280 564L2279 563z"/>
<path style="fill:#a4af9e; stroke:none;" d="M2277 564L2278 565L2277 564M2275 565L2276 566L2275 565M2273 566L2274 567L2273 566M2271 567L2272 568L2271 567M2269 568L2270 569L2269 568M2267 569L2268 570L2267 569M2265 570L2266 571L2265 570M2263 571L2264 572L2263 571M2261 572L2262 573L2261 572M2259 573L2260 574L2259 573M2257 574L2258 575L2257 574M2255 575L2256 576L2255 575M2253 576L2254 577L2253 576M2251 577L2252 578L2251 577M2249 578L2250 579L2249 578M2247 579L2248 580L2247 579M2245 580L2246 581L2245 580M2243 581L2244 582L2243 581M2241 582L2242 583L2241 582M2239 583L2240 584L2239 583z"/>
<path style="fill:#ceb077; stroke:none;" d="M2237 584L2238 585L2237 584M2235 585L2236 586L2235 585M2233 586L2234 587L2233 586M2231 587L2232 588L2231 587z"/>
<path style="fill:#a4af9e; stroke:none;" d="M2232 587L2233 588L2232 587M2230 588L2231 589L2230 588M2228 589L2229 590L2228 589M2226 590L2227 591L2226 590M2224 591L2225 592L2224 591z"/>
<path style="fill:#ceb077; stroke:none;" d="M2222 592L2223 593L2222 592M2220 593L2221 594L2220 593M2218 594L2219 595L2218 594z"/>
<path style="fill:#a4af9e; stroke:none;" d="M2219 594L2220 595L2219 594M2217 595L2218 596L2217 595M2215 596L2216 597L2215 596M2213 597L2214 598L2213 597z"/>
<path style="fill:#ceb077; stroke:none;" d="M2211 598L2212 599L2211 598M2209 599L2210 600L2209 599z"/>
<path style="fill:#a4af9e; stroke:none;" d="M2210 599L2211 600L2210 599M2208 600L2209 601L2208 600M2206 601L2207 602L2206 601z"/>
<path style="fill:#ceb077; stroke:none;" d="M2204 602L2205 603L2204 602M2202 603L2203 604L2202 603z"/>
<path style="fill:#a4af9e; stroke:none;" d="M2201 604L2202 605L2201 604M2199 605L2200 606L2199 605z"/>
<path style="fill:#ceb077; stroke:none;" d="M2197 606L2198 607L2197 606M2195 607L2196 608L2195 607z"/>
<path style="fill:#a4af9e; stroke:none;" d="M2194 608L2195 609L2194 608M2192 609L2193 610L2192 609z"/>
<path style="fill:#ceb077; stroke:none;" d="M2190 610L2191 611L2190 610M2188 611L2189 612L2188 611z"/>
<path style="fill:#a4af9e; stroke:none;" d="M2189 611L2190 612L2189 611M2187 612L2188 613L2187 612z"/>
<path style="fill:#ceb077; stroke:none;" d="M2185 613L2186 614L2185 613M2183 614L2184 615L2183 614z"/>
<path style="fill:#a4af9e; stroke:none;" d="M2184 614L2185 615L2184 614M2182 615L2183 616L2182 615M2180 616L2181 617L2180 616z"/>
<path style="fill:#ceb077; stroke:none;" d="M2178 617L2179 618L2178 617z"/>
<path style="fill:#a4af9e; stroke:none;" d="M2177 618L2178 619L2177 618z"/>
<path style="fill:#ceb077; stroke:none;" d="M2175 619L2176 620L2175 619M2173 620L2174 621L2173 620z"/>
<path style="fill:#a4af9e; stroke:none;" d="M2174 620L2175 621L2174 620M2172 621L2173 622L2172 621z"/>
<path style="fill:#ceb077; stroke:none;" d="M2170 622L2171 623L2170 622z"/>
<path style="fill:#a4af9e; stroke:none;" d="M2169 623L2170 624L2169 623M2167 624L2168 625L2167 624z"/>
<path style="fill:#ceb077; stroke:none;" d="M2165 625L2166 626L2165 625z"/>
<path style="fill:#a4af9e; stroke:none;" d="M2164 626L2165 627L2164 626M2162 627L2163 628L2162 627M2159 629L2160 630L2159 629z"/>
<path style="fill:#ceb077; stroke:none;" d="M2157 630L2158 631L2157 630z"/>
<path style="fill:#a4af9e; stroke:none;" d="M2156 631L2157 632L2156 631z"/>
<path style="fill:#ceb077; stroke:none;" d="M2154 632L2155 633L2154 632z"/>
<path style="fill:#a4af9e; stroke:none;" d="M2153 633L2154 634L2153 633M2151 634L2152 635L2151 634z"/>
<path style="fill:#ceb077; stroke:none;" d="M2149 635L2150 636L2149 635z"/>
<path style="fill:#a4af9e; stroke:none;" d="M2148 636L2149 637L2148 636z"/>
<path style="fill:#ceb077; stroke:none;" d="M2146 637L2147 638L2146 637z"/>
<path style="fill:#a4af9e; stroke:none;" d="M2145 638L2146 639L2145 638z"/>
<path style="fill:#ceb077; stroke:none;" d="M2143 639L2144 640L2143 639z"/>
<path style="fill:#a4af9e; stroke:none;" d="M2142 640L2143 641L2142 640z"/>
<path style="fill:#ceb077; stroke:none;" d="M2140 641L2141 642L2140 641z"/>
<path style="fill:#a4af9e; stroke:none;" d="M2139 642L2140 643L2139 642z"/>
<path style="fill:#ffffff; stroke:none;" d="M2476 752C2480.44 771.174 2487.7 789.955 2492.85 809C2501.61 841.374 2508.34 874.745 2512.72 908C2531.76 1052.82 2515.07 1199.47 2462.19 1336C2444.21 1382.42 2422.19 1427.1 2396.99 1470C2383.95 1492.2 2366.41 1513.06 2355 1536C2380.77 1546.73 2405.2 1560.75 2431 1571.58C2481.8 1592.89 2533.92 1610.82 2587 1625.58C2731.46 1665.73 2883.52 1682.68 3033 1679.01C3219.8 1674.44 3407.2 1644.02 3580 1569.85C3684.79 1524.87 3787.38 1463.38 3862.27 1376C3907.54 1323.18 3942.09 1258.42 3946.91 1188C3957.56 1032.37 3826.39 908.588 3704 835C3681.15 821.262 3657.84 808.673 3634 796.753C3377.27 668.389 3069.65 638.684 2788 675.718C2715.72 685.223 2644.13 699.583 2574 719.579C2541.31 728.9 2507.13 738.202 2476 752z"/>
<path style="fill:#a4af9e; stroke:none;" d="M2475 751L2476 752L2475 751M2472 752L2473 753L2472 752z"/>
<path style="fill:#ceb077; stroke:none;" d="M2473 752L2474 753L2473 752z"/>
<path style="fill:#f9a12f; stroke:none;" d="M2356 1535C2395.84 1470.45 2434.63 1408.14 2462.19 1337C2535.08 1148.81 2538.28 943.391 2476 752C2456.01 756.736 2435.69 767.267 2417 775.694C2379.3 792.688 2342.49 811.109 2307 832.4C2293.42 840.546 2280.04 848.99 2267 857.974C2262.18 861.299 2255.06 864.441 2251.62 869.3C2248.56 873.61 2252.23 881.409 2253.37 886C2256.98 900.513 2259.79 915.253 2262.25 930C2270.9 981.907 2272.06 1034.72 2266.83 1087C2259.91 1156.24 2240.05 1225.37 2209.74 1288C2198.29 1311.67 2185.66 1334.65 2171.81 1357C2167.47 1364 2155.17 1376.81 2154.83 1385C2154.62 1390.01 2161.82 1395.78 2165 1399C2175.34 1409.46 2185.87 1419.81 2197 1429.42C2232.52 1460.11 2270.38 1487.84 2311 1511.42C2324.42 1519.21 2340.59 1532.25 2356 1535z"/>
<path style="fill:#a4af9e; stroke:none;" d="M2469.67 753.333L2470.33 753.667L2469.67 753.333M2467 754L2468 755L2467 754z"/>
<path style="fill:#ceb077; stroke:none;" d="M2468 754L2469 755L2468 754z"/>
<path style="fill:#a4af9e; stroke:none;" d="M2464.67 755.333L2465.33 755.667L2464.67 755.333M2462 756L2463 757L2462 756z"/>
<path style="fill:#ceb077; stroke:none;" d="M2463 756L2464 757L2463 756z"/>
<path style="fill:#a4af9e; stroke:none;" d="M2459 757L2460 758L2459 757z"/>
<path style="fill:#ceb077; stroke:none;" d="M2460 757L2461 758L2460 757z"/>
<path style="fill:#a4af9e; stroke:none;" d="M2457 758L2458 759L2457 758z"/>
<path style="fill:#ceb077; stroke:none;" d="M2458 758L2459 759L2458 758z"/>
<path style="fill:#a4af9e; stroke:none;" d="M2454 759L2455 760L2454 759z"/>
<path style="fill:#ceb077; stroke:none;" d="M2455 759L2456 760L2455 759z"/>
<path style="fill:#a4af9e; stroke:none;" d="M2452 760L2453 761L2452 760z"/>
<path style="fill:#ceb077; stroke:none;" d="M2453 760L2454 761L2453 760z"/>
<path style="fill:#a4af9e; stroke:none;" d="M2449 761L2450 762L2449 761z"/>
<path style="fill:#ceb077; stroke:none;" d="M2450 761L2451 762L2450 761z"/>
<path style="fill:#a4af9e; stroke:none;" d="M2447 762L2448 763L2447 762z"/>
<path style="fill:#ceb077; stroke:none;" d="M2448 762L2449 763L2448 762z"/>
<path style="fill:#a4af9e; stroke:none;" d="M2444 763L2445 764L2444 763z"/>
<path style="fill:#ceb077; stroke:none;" d="M2445 763L2446 764L2445 763z"/>
<path style="fill:#a4af9e; stroke:none;" d="M2442 764L2443 765L2442 764z"/>
<path style="fill:#ceb077; stroke:none;" d="M2443 764L2444 765L2443 764z"/>
<path style="fill:#a4af9e; stroke:none;" d="M2439.67 765.333L2440.33 765.667L2439.67 765.333M2437 766L2438 767L2437 766z"/>
<path style="fill:#ceb077; stroke:none;" d="M2438 766L2439 767L2438 766z"/>
<path style="fill:#a4af9e; stroke:none;" d="M2435 767L2436 768L2435 767M2432 768L2433 769L2432 768z"/>
<path style="fill:#ceb077; stroke:none;" d="M2433 768L2434 769L2433 768z"/>
<path style="fill:#a4af9e; stroke:none;" d="M2430 769L2431 770L2430 769z"/>
<path style="fill:#ceb077; stroke:none;" d="M2431 769L2432 770L2431 769z"/>
<path style="fill:#a4af9e; stroke:none;" d="M2427.67 770.333L2428.33 770.667L2427.67 770.333M2425 771L2426 772L2425 771z"/>
<path style="fill:#ceb077; stroke:none;" d="M2426 771L2427 772L2426 771z"/>
<path style="fill:#a4af9e; stroke:none;" d="M2423 772L2424 773L2423 772z"/>
<path style="fill:#ceb077; stroke:none;" d="M2424 772L2425 773L2424 772z"/>
<path style="fill:#a4af9e; stroke:none;" d="M2421 773L2422 774L2421 773z"/>
<path style="fill:#ceb077; stroke:none;" d="M2419 774L2420 775L2419 774z"/>
<path style="fill:#a4af9e; stroke:none;" d="M2416 775L2417 776L2416 775z"/>
<path style="fill:#ceb077; stroke:none;" d="M2417 775L2418 776L2417 775z"/>
<path style="fill:#a4af9e; stroke:none;" d="M2414 776L2415 777L2414 776z"/>
<path style="fill:#ceb077; stroke:none;" d="M2415 776L2416 777L2415 776z"/>
<path style="fill:#a4af9e; stroke:none;" d="M2412 777L2413 778L2412 777z"/>
<path style="fill:#ceb077; stroke:none;" d="M2410 778L2411 779L2410 778z"/>
<path style="fill:#a4af9e; stroke:none;" d="M2407 779L2408 780L2407 779z"/>
<path style="fill:#ceb077; stroke:none;" d="M2408 779L2409 780L2408 779z"/>
<path style="fill:#a4af9e; stroke:none;" d="M2405 780L2406 781L2405 780z"/>
<path style="fill:#ceb077; stroke:none;" d="M2406 780L2407 781L2406 780z"/>
<path style="fill:#a4af9e; stroke:none;" d="M2403 781L2404 782L2403 781z"/>
<path style="fill:#ceb077; stroke:none;" d="M2404 781L2405 782L2404 781z"/>
<path style="fill:#a4af9e; stroke:none;" d="M2401 782L2402 783L2401 782z"/>
<path style="fill:#ceb077; stroke:none;" d="M2399 783L2400 784L2399 783z"/>
<path style="fill:#a4af9e; stroke:none;" d="M2396 784L2397 785L2396 784z"/>
<path style="fill:#ceb077; stroke:none;" d="M2397 784L2398 785L2397 784z"/>
<path style="fill:#a4af9e; stroke:none;" d="M2394 785L2395 786L2394 785z"/>
<path style="fill:#ceb077; stroke:none;" d="M2395 785L2396 786L2395 785z"/>
<path style="fill:#a4af9e; stroke:none;" d="M2392 786L2393 787L2392 786z"/>
<path style="fill:#ceb077; stroke:none;" d="M2393 786L2394 787L2393 786z"/>
<path style="fill:#a4af9e; stroke:none;" d="M2390 787L2391 788L2390 787z"/>
<path style="fill:#ceb077; stroke:none;" d="M2391 787L2392 788L2391 787z"/>
<path style="fill:#a4af9e; stroke:none;" d="M2388 788L2389 789L2388 788z"/>
<path style="fill:#ceb077; stroke:none;" d="M2389 788L2390 789L2389 788z"/>
<path style="fill:#a4af9e; stroke:none;" d="M2386 789L2387 790L2386 789M2384 790L2385 791L2384 790M2382 791L2383 792L2382 791z"/>
<path style="fill:#ceb077; stroke:none;" d="M2380 792L2381 793L2380 792M2378 793L2379 794L2378 793M2376 794L2377 795L2376 794M2374 795L2375 796L2374 795M2372 796L2373 797L2372 796M2370 797L2371 798L2370 797M2368 798L2369 799L2368 798M2366 799L2367 800L2366 799M2364 800L2365 801L2364 800M2362 801L2363 802L2362 801M2360 802L2361 803L2360 802z"/>
<path style="fill:#a4af9e; stroke:none;" d="M2358 803L2359 804L2358 803M2356 804L2357 805L2356 804M2354 805L2355 806L2354 805M2352 806L2353 807L2352 806z"/>
<path style="fill:#ceb077; stroke:none;" d="M2353 806L2354 807L2353 806z"/>
<path style="fill:#a4af9e; stroke:none;" d="M2350 807L2351 808L2350 807z"/>
<path style="fill:#ceb077; stroke:none;" d="M2351 807L2352 808L2351 807z"/>
<path style="fill:#a4af9e; stroke:none;" d="M2348 808L2349 809L2348 808z"/>
<path style="fill:#ceb077; stroke:none;" d="M2349 808L2350 809L2349 808z"/>
<path style="fill:#a4af9e; stroke:none;" d="M2346 809L2347 810L2346 809z"/>
<path style="fill:#ceb077; stroke:none;" d="M2347 809L2348 810L2347 809z"/>
<path style="fill:#a4af9e; stroke:none;" d="M2345 810L2346 811L2345 810M2343 811L2344 812L2343 811M2341 812L2342 813L2341 812M2339 813L2340 814L2339 813M2337 814L2338 815L2337 814z"/>
<path style="fill:#ceb077; stroke:none;" d="M2338 814L2339 815L2338 814z"/>
<path style="fill:#a4af9e; stroke:none;" d="M2335 815L2336 816L2335 815z"/>
<path style="fill:#ceb077; stroke:none;" d="M2336 815L2337 816L2336 815z"/>
<path style="fill:#a4af9e; stroke:none;" d="M2334 816L2335 817L2334 816M2332 817L2333 818L2332 817M2330 818L2331 819L2330 818M2328 819L2329 820L2328 819z"/>
<path style="fill:#ceb077; stroke:none;" d="M2329 819L2330 820L2329 819z"/>
<path style="fill:#a4af9e; stroke:none;" d="M2326 820L2327 821L2326 820z"/>
<path style="fill:#ceb077; stroke:none;" d="M2327 820L2328 821L2327 820z"/>
<path style="fill:#a4af9e; stroke:none;" d="M2325 821L2326 822L2325 821M2323 822L2324 823L2323 822M2321 823L2322 824L2321 823z"/>
<path style="fill:#ceb077; stroke:none;" d="M2322 823L2323 824L2322 823M2320 824L2321 825L2320 824z"/>
<path style="fill:#a4af9e; stroke:none;" d="M2318 825L2319 826L2318 825M2316 826L2317 827L2316 826z"/>
<path style="fill:#ceb077; stroke:none;" d="M2315 827L2316 828L2315 827z"/>
<path style="fill:#a4af9e; stroke:none;" d="M2313 828L2314 829L2313 828M2311 829L2312 830L2311 829M2309 830L2310 831L2309 830z"/>
<path style="fill:#ceb077; stroke:none;" d="M2310 830L2311 831L2310 830M2308 831L2309 832L2308 831z"/>
<path style="fill:#a4af9e; stroke:none;" d="M2306 832L2307 833L2306 832M2304 833L2305 834L2304 833z"/>
<path style="fill:#ceb077; stroke:none;" d="M2305 833L2306 834L2305 833M2303 834L2304 835L2303 834z"/>
<path style="fill:#a4af9e; stroke:none;" d="M2301 835L2302 836L2301 835z"/>
<path style="fill:#ceb077; stroke:none;" d="M2300 836L2301 837L2300 836z"/>
<path style="fill:#a4af9e; stroke:none;" d="M2298 837L2299 838L2298 837M2296 838L2297 839L2296 838z"/>
<path style="fill:#ceb077; stroke:none;" d="M2295 839L2296 840L2295 839z"/>
<path style="fill:#a4af9e; stroke:none;" d="M2293 840L2294 841L2293 840z"/>
<path style="fill:#ceb077; stroke:none;" d="M2292 841L2293 842L2292 841z"/>
<path style="fill:#a4af9e; stroke:none;" d="M2290 842L2291 843L2290 842M2288 843L2289 844L2288 843z"/>
<path style="fill:#ceb077; stroke:none;" d="M2287 844L2288 845L2287 844z"/>
<path style="fill:#a4af9e; stroke:none;" d="M2285 845L2286 846L2285 845z"/>
<path style="fill:#ceb077; stroke:none;" d="M2284 846L2285 847L2284 846z"/>
<path style="fill:#a4af9e; stroke:none;" d="M2282 847L2283 848L2282 847z"/>
<path style="fill:#ceb077; stroke:none;" d="M2281 848L2282 849L2281 848z"/>
<path style="fill:#a4af9e; stroke:none;" d="M2279 849L2280 850L2279 849z"/>
<path style="fill:#ceb077; stroke:none;" d="M2278 850L2279 851L2278 850z"/>
<path style="fill:#a4af9e; stroke:none;" d="M2276 851L2277 852L2276 851M2274 852L2275 853L2274 852M2273 853L2274 854L2273 853M2271 854L2272 855L2271 854M2270 855L2271 856L2270 855z"/>
<path style="fill:#ceb077; stroke:none;" d="M2269 856L2270 857L2269 856z"/>
<path style="fill:#a4af9e; stroke:none;" d="M2267 857L2268 858L2267 857z"/>
<path style="fill:#ceb077; stroke:none;" d="M2266 858L2267 859L2266 858z"/>
<path style="fill:#a4af9e; stroke:none;" d="M2264 859L2265 860L2264 859z"/>
<path style="fill:#ceb077; stroke:none;" d="M2263 860L2264 861L2263 860z"/>
<path style="fill:#a4af9e; stroke:none;" d="M2261 861L2262 862L2261 861z"/>
<path style="fill:#ceb077; stroke:none;" d="M2260 862L2261 863L2260 862z"/>
<path style="fill:#a4af9e; stroke:none;" d="M2258 863L2259 864L2258 863M2257 864L2258 865L2257 864M2254 866L2255 867L2254 866z"/>
<path style="fill:#ceb077; stroke:none;" d="M2253 867L2254 868L2253 867z"/>
<path style="fill:#a4af9e; stroke:none;" d="M2251 868L2252 869L2251 868M2250 869L2251 870L2250 869z"/>
<path style="fill:#ffffff; stroke:none;" d="M2249 871C2136.67 947.414 2033.83 1081.75 2065.42 1225C2071.83 1254.06 2082.65 1282.03 2097.14 1308C2112.42 1335.39 2130.85 1362.67 2153 1385L2154 1385C2173.87 1359.16 2189.71 1329.07 2204.25 1300C2250.74 1207.01 2276.22 1100.11 2269.09 996C2267.04 966.012 2264.11 936.571 2258.2 907C2255.99 895.936 2254.92 880.686 2249 871M4197 1195C4197 1237.01 4187.75 1279.91 4175.72 1320C4127.52 1480.65 4005.77 1607.15 3869 1698.33C3746.24 1780.17 3607.23 1835.49 3465 1872.88C3202.81 1941.82 2919.98 1949.5 2654 1898.2C2540.08 1876.22 2427.28 1844.09 2321 1797.14C2286.29 1781.81 2252.5 1765.01 2219 1747.22C2210.22 1742.56 2201.59 1737.56 2193 1732.58C2189.87 1730.76 2185.85 1727.26 2182 1727.66C2174.81 1728.41 2165.43 1739.9 2160 1744.41C2142.78 1758.75 2125.11 1772.64 2107 1785.85C2046.61 1829.9 1982.84 1868.34 1916 1901.75C1724.46 1997.52 1504.11 2050 1290 2050L1290 2051L4198 2051L4198 1444L4198 1268L4198 1218L4197 1195z"/>
<path style="fill:#a4af9e; stroke:none;" d="M2153.33 1385.67L2153.67 1386.33L2153.33 1385.67M2154 1387L2155 1388L2154 1387M2155 1388L2156 1389L2155 1388z"/>
<path style="fill:#ceb077; stroke:none;" d="M2156 1389L2157 1390L2156 1389M2157 1390L2158 1391L2157 1390M2158 1391L2159 1392L2158 1391z"/>
<path style="fill:#a4af9e; stroke:none;" d="M2174 1408L2175 1409L2174 1408M2175 1409L2176 1410L2175 1409M2176 1410L2177 1411L2176 1410M2177 1411L2178 1412L2177 1411M2178 1412L2179 1413L2178 1412M2179 1413L2180 1414L2179 1413z"/>
<path style="fill:#ceb077; stroke:none;" d="M2185 1418L2186 1419L2185 1418M2186 1419L2187 1420L2186 1419M2187 1420L2188 1421L2187 1420M2188 1421L2189 1422L2188 1421z"/>
<path style="fill:#a4af9e; stroke:none;" d="M2189 1422L2190 1423L2189 1422M2190 1423L2191 1424L2190 1423M2191 1424L2192 1425L2191 1424M2192 1425L2193 1426L2192 1425M2193 1426L2194 1427L2193 1426z"/>
<path style="fill:#ceb077; stroke:none;" d="M2197 1429L2198 1430L2197 1429M2198 1430L2199 1431L2198 1430z"/>
<path style="fill:#a4af9e; stroke:none;" d="M2199 1431L2200 1432L2199 1431M2200 1432L2201 1433L2200 1432M2201 1433L2202 1434L2201 1433z"/>
<path style="fill:#ceb077; stroke:none;" d="M2205 1436L2206 1437L2205 1436z"/>
<path style="fill:#a4af9e; stroke:none;" d="M2206 1437L2207 1438L2206 1437M2207 1438L2208 1439L2207 1438M2208 1439L2209 1440L2208 1439z"/>
<path style="fill:#ceb077; stroke:none;" d="M2211 1441L2212 1442L2211 1441M2212 1442L2213 1443L2212 1442z"/>
<path style="fill:#a4af9e; stroke:none;" d="M2213 1443L2214 1444L2213 1443M2214 1444L2215 1445L2214 1444z"/>
<path style="fill:#ceb077; stroke:none;" d="M2217 1446L2218 1447L2217 1446z"/>
<path style="fill:#a4af9e; stroke:none;" d="M2218 1447L2219 1448L2218 1447M2219 1448L2220 1449L2219 1448M2220 1449L2221 1450L2220 1449z"/>
<path style="fill:#ceb077; stroke:none;" d="M2222 1450L2223 1451L2222 1450M2223 1451L2224 1452L2223 1451z"/>
<path style="fill:#a4af9e; stroke:none;" d="M2224 1452L2225 1453L2224 1452M2225 1453L2226 1454L2225 1453z"/>
<path style="fill:#ceb077; stroke:none;" d="M2227 1454L2228 1455L2227 1454z"/>
<path style="fill:#a4af9e; stroke:none;" d="M2228 1455L2229 1456L2228 1455M2229 1456L2230 1457L2229 1456z"/>
<path style="fill:#ceb077; stroke:none;" d="M2232 1458L2233 1459L2232 1458z"/>
<path style="fill:#a4af9e; stroke:none;" d="M2233 1459L2234 1460L2233 1459M2234 1460L2235 1461L2234 1460z"/>
<path style="fill:#ceb077; stroke:none;" d="M2236 1461L2237 1462L2236 1461z"/>
<path style="fill:#a4af9e; stroke:none;" d="M2237 1462L2238 1463L2237 1462M2238 1463L2239 1464L2238 1463z"/>
<path style="fill:#ceb077; stroke:none;" d="M2240 1464L2241 1465L2240 1464z"/>
<path style="fill:#a4af9e; stroke:none;" d="M2241 1465L2242 1466L2241 1465M2242 1466L2243 1467L2242 1466z"/>
<path style="fill:#ceb077; stroke:none;" d="M2244 1467L2245 1468L2244 1467z"/>
<path style="fill:#a4af9e; stroke:none;" d="M2245 1468L2246 1469L2245 1468z"/>
<path style="fill:#ceb077; stroke:none;" d="M2248 1470L2249 1471L2248 1470z"/>
<path style="fill:#a4af9e; stroke:none;" d="M2249 1471L2250 1472L2249 1471z"/>
<path style="fill:#ceb077; stroke:none;" d="M2251 1472L2252 1473L2251 1472z"/>
<path style="fill:#a4af9e; stroke:none;" d="M2252 1473L2253 1474L2252 1473M2253 1474L2254 1475L2253 1474z"/>
<path style="fill:#ceb077; stroke:none;" d="M2255 1475L2256 1476L2255 1475z"/>
<path style="fill:#a4af9e; stroke:none;" d="M2256 1476L2257 1477L2256 1476z"/>
<path style="fill:#ceb077; stroke:none;" d="M2258 1477L2259 1478L2258 1477z"/>
<path style="fill:#a4af9e; stroke:none;" d="M2259 1478L2260 1479L2259 1478z"/>
<path style="fill:#ceb077; stroke:none;" d="M2261 1479L2262 1480L2261 1479z"/>
<path style="fill:#a4af9e; stroke:none;" d="M2262 1480L2263 1481L2262 1480M2263 1481L2264 1482L2263 1481M2265 1482L2266 1483L2265 1482M2266 1483L2267 1484L2266 1483z"/>
<path style="fill:#ceb077; stroke:none;" d="M2268 1484L2269 1485L2268 1484z"/>
<path style="fill:#a4af9e; stroke:none;" d="M2269 1485L2270 1486L2269 1485z"/>
<path style="fill:#ceb077; stroke:none;" d="M2271 1486L2272 1487L2271 1486z"/>
<path style="fill:#a4af9e; stroke:none;" d="M2272 1487L2273 1488L2272 1487z"/>
<path style="fill:#ceb077; stroke:none;" d="M2274 1488L2275 1489L2274 1488z"/>
<path style="fill:#a4af9e; stroke:none;" d="M2275 1489L2276 1490L2275 1489z"/>
<path style="fill:#ceb077; stroke:none;" d="M2277 1490L2278 1491L2277 1490z"/>
<path style="fill:#a4af9e; stroke:none;" d="M2278 1491L2279 1492L2278 1491M2280 1492L2281 1493L2280 1492M2281 1493L2282 1494L2281 1493M2283 1494L2284 1495L2283 1494z"/>
<path style="fill:#ceb077; stroke:none;" d="M2285 1495L2286 1496L2285 1495z"/>
<path style="fill:#a4af9e; stroke:none;" d="M2286 1496L2287 1497L2286 1496z"/>
<path style="fill:#ceb077; stroke:none;" d="M2288 1497L2289 1498L2288 1497z"/>
<path style="fill:#a4af9e; stroke:none;" d="M2289 1498L2290 1499L2289 1498z"/>
<path style="fill:#ceb077; stroke:none;" d="M2291 1499L2292 1500L2291 1499z"/>
<path style="fill:#a4af9e; stroke:none;" d="M2292 1500L2293 1501L2292 1500M2294 1501L2295 1502L2294 1501z"/>
<path style="fill:#ceb077; stroke:none;" d="M2296 1502L2297 1503L2296 1502z"/>
<path style="fill:#a4af9e; stroke:none;" d="M2297 1503L2298 1504L2297 1503z"/>
<path style="fill:#ceb077; stroke:none;" d="M2299 1504L2300 1505L2299 1504z"/>
<path style="fill:#a4af9e; stroke:none;" d="M2300 1505L2301 1506L2300 1505z"/>
<path style="fill:#ceb077; stroke:none;" d="M2301 1505L2302 1506L2301 1505z"/>
<path style="fill:#a4af9e; stroke:none;" d="M2302 1506L2303 1507L2302 1506z"/>
<path style="fill:#ceb077; stroke:none;" d="M2304 1507L2305 1508L2304 1507z"/>
<path style="fill:#a4af9e; stroke:none;" d="M2305 1508L2306 1509L2305 1508M2307 1509L2308 1510L2307 1509z"/>
<path style="fill:#ceb077; stroke:none;" d="M2309 1510L2310 1511L2309 1510z"/>
<path style="fill:#a4af9e; stroke:none;" d="M2310 1511L2311 1512L2310 1511z"/>
<path style="fill:#ceb077; stroke:none;" d="M2311 1511L2312 1512L2311 1511z"/>
<path style="fill:#a4af9e; stroke:none;" d="M2312 1512L2313 1513L2312 1512z"/>
<path style="fill:#ceb077; stroke:none;" d="M2314 1513L2315 1514L2314 1513M2316 1514L2317 1515L2316 1514z"/>
<path style="fill:#a4af9e; stroke:none;" d="M2317 1515L2318 1516L2317 1515M2319 1516L2320 1517L2319 1516z"/>
<path style="fill:#ceb077; stroke:none;" d="M2321 1517L2322 1518L2321 1517z"/>
<path style="fill:#a4af9e; stroke:none;" d="M2322 1518L2323 1519L2322 1518z"/>
<path style="fill:#ceb077; stroke:none;" d="M2323 1518L2324 1519L2323 1518z"/>
<path style="fill:#a4af9e; stroke:none;" d="M2324 1519L2325 1520L2324 1519M2326 1520L2327 1521L2326 1520z"/>
<path style="fill:#ceb077; stroke:none;" d="M2328 1521L2329 1522L2328 1521z"/>
<path style="fill:#a4af9e; stroke:none;" d="M2329 1522L2330 1523L2329 1522z"/>
<path style="fill:#ceb077; stroke:none;" d="M2330 1522L2331 1523L2330 1522z"/>
<path style="fill:#a4af9e; stroke:none;" d="M2331 1523L2332 1524L2331 1523M2333 1524L2334 1525L2333 1524M2335 1525L2336 1526L2335 1525M2336 1526L2337 1527L2336 1526z"/>
<path style="fill:#ceb077; stroke:none;" d="M2337 1526L2338 1527L2337 1526z"/>
<path style="fill:#a4af9e; stroke:none;" d="M2338 1527L2339 1528L2338 1527z"/>
<path style="fill:#ceb077; stroke:none;" d="M2339 1527L2340 1528L2339 1527z"/>
<path style="fill:#a4af9e; stroke:none;" d="M2340 1528L2341 1529L2340 1528z"/>
<path style="fill:#ceb077; stroke:none;" d="M2341 1528L2342 1529L2341 1528z"/>
<path style="fill:#a4af9e; stroke:none;" d="M2342 1529L2343 1530L2342 1529M2344 1530L2345 1531L2344 1530M2346 1531L2347 1532L2346 1531z"/>
<path style="fill:#ceb077; stroke:none;" d="M2348 1532L2349 1533L2348 1532z"/>
<path style="fill:#a4af9e; stroke:none;" d="M2349 1533L2350 1534L2349 1533z"/>
<path style="fill:#ceb077; stroke:none;" d="M2350 1533L2351 1534L2350 1533z"/>
<path style="fill:#a4af9e; stroke:none;" d="M2351 1534L2352 1535L2351 1534z"/>
<path style="fill:#ceb077; stroke:none;" d="M2352 1534L2353 1535L2352 1534z"/>
<path style="fill:#a4af9e; stroke:none;" d="M2353 1535L2354 1536L2353 1535z"/>
<path style="fill:#ceb077; stroke:none;" d="M2354 1535L2355 1536L2354 1535z"/>
<path style="fill:#a4af9e; stroke:none;" d="M1980 1567L1987 1574L1980 1567z"/>
<path style="fill:#f9a12f; stroke:none;" d="M1353 1797L1353 2048C1413.58 2047.96 1476.45 2037.17 1536 2026.42C1707.92 1995.42 1875.25 1934.74 2024 1842.58C2080.05 1807.85 2129.69 1766.71 2182 1727C2176.48 1721.02 2167.88 1717.26 2161 1712.95C2148.5 1705.11 2136.2 1696.96 2124 1688.66C2090.31 1665.73 2058.74 1640.26 2028 1613.58C2016.14 1603.28 2005.11 1592.11 1994 1581C1990.59 1577.59 1985.12 1569.58 1980 1569.03C1975.4 1568.54 1969.41 1575.07 1966 1577.63C1954.47 1586.27 1942.87 1594.79 1931 1602.97C1888.15 1632.51 1842.34 1659.95 1795 1681.69C1709.68 1720.87 1621.99 1752.23 1530 1771.79C1471.25 1784.28 1412.35 1789.5 1353 1797z"/>
<path style="fill:#a4af9e; stroke:none;" d="M2004 1591L2005 1592L2004 1591M2005 1592L2006 1593L2005 1592M2006 1593L2007 1594L2006 1593M2007 1594L2008 1595L2007 1594M2008 1595L2009 1596L2008 1595M2009 1596L2010 1597L2009 1596z"/>
<path style="fill:#ceb077; stroke:none;" d="M2010 1597L2011 1598L2010 1597z"/>
<path style="fill:#a4af9e; stroke:none;" d="M2497 1597L2497 1861C2538.51 1870.52 2579.27 1882.92 2621 1891.79C2698.41 1908.25 2777.22 1918.78 2856 1925L2856 1673C2821.51 1672.29 2786.07 1665.71 2752 1660.42C2664.76 1646.89 2580.83 1624.28 2497 1597z"/>
<path style="fill:#ceb077; stroke:none;" d="M2011 1598L2012 1599L2011 1598M2012 1599L2013 1600L2012 1599M2013 1600L2014 1601L2013 1600M2014 1601L2015 1602L2014 1601M2015 1602L2016 1603L2015 1602M2016 1603L2017 1604L2016 1603z"/>
<path style="fill:#a4af9e; stroke:none;" d="M2021 1607L2022 1608L2021 1607M2022 1608L2023 1609L2022 1608M2023 1609L2024 1610L2023 1609z"/>
<path style="fill:#ceb077; stroke:none;" d="M2024 1610L2025 1611L2024 1610M2025 1611L2026 1612L2025 1611M2026 1612L2027 1613L2026 1612M2027 1613L2028 1614L2027 1613z"/>
<path style="fill:#a4af9e; stroke:none;" d="M2031 1616L2032 1617L2031 1616M2032 1617L2033 1618L2032 1617z"/>
<path style="fill:#ceb077; stroke:none;" d="M2033 1618L2034 1619L2033 1618M2034 1619L2035 1620L2034 1619M2035 1620L2036 1621L2035 1620M2036 1621L2037 1622L2036 1621z"/>
<path style="fill:#a4af9e; stroke:none;" d="M2039 1623L2040 1624L2039 1623M2040 1624L2041 1625L2040 1624z"/>
<path style="fill:#ceb077; stroke:none;" d="M2041 1625L2042 1626L2041 1625M2042 1626L2043 1627L2042 1626M2043 1627L2044 1628L2043 1627z"/>
<path style="fill:#a4af9e; stroke:none;" d="M2046 1629L2047 1630L2046 1629M2047 1630L2048 1631L2047 1630z"/>
<path style="fill:#ceb077; stroke:none;" d="M2048 1631L2049 1632L2048 1631M2049 1632L2050 1633L2049 1632z"/>
<path style="fill:#a4af9e; stroke:none;" d="M2052 1634L2053 1635L2052 1634M2053 1635L2054 1636L2053 1635z"/>
<path style="fill:#ceb077; stroke:none;" d="M2054 1636L2055 1637L2054 1636M2055 1637L2056 1638L2055 1637z"/>
<path style="fill:#a4af9e; stroke:none;" d="M2058 1639L2059 1640L2058 1639z"/>
<path style="fill:#ceb077; stroke:none;" d="M2059 1640L2060 1641L2059 1640M2060 1641L2061 1642L2060 1641M2061 1642L2062 1643L2061 1642z"/>
<path style="fill:#a4af9e; stroke:none;" d="M2063 1643L2064 1644L2063 1643M2064 1644L2065 1645L2064 1644z"/>
<path style="fill:#ceb077; stroke:none;" d="M2065 1645L2066 1646L2065 1645M2066 1646L2067 1647L2066 1646z"/>
<path style="fill:#a4af9e; stroke:none;" d="M2068 1647L2069 1648L2068 1647M2069 1648L2070 1649L2069 1648z"/>
<path style="fill:#ceb077; stroke:none;" d="M2070 1649L2071 1650L2070 1649M2071 1650L2072 1651L2071 1650z"/>
<path style="fill:#a4af9e; stroke:none;" d="M2073 1651L2074 1652L2073 1651z"/>
<path style="fill:#ceb077; stroke:none;" d="M2074 1652L2075 1653L2074 1652M2075 1653L2076 1654L2075 1653z"/>
<path style="fill:#a4af9e; stroke:none;" d="M2078 1655L2079 1656L2078 1655z"/>
<path style="fill:#ceb077; stroke:none;" d="M2079 1656L2080 1657L2079 1656M2080 1657L2081 1658L2080 1657z"/>
<path style="fill:#a4af9e; stroke:none;" d="M2082 1658L2083 1659L2082 1658z"/>
<path style="fill:#ceb077; stroke:none;" d="M2083 1659L2084 1660L2083 1659z"/>
<path style="fill:#a4af9e; stroke:none;" d="M2086 1661L2087 1662L2086 1661z"/>
<path style="fill:#ceb077; stroke:none;" d="M2087 1662L2088 1663L2087 1662z"/>
<path style="fill:#a4af9e; stroke:none;" d="M2090 1664L2091 1665L2090 1664z"/>
<path style="fill:#ceb077; stroke:none;" d="M2091 1665L2092 1666L2091 1665z"/>
<path style="fill:#a4af9e; stroke:none;" d="M2094 1667L2095 1668L2094 1667z"/>
<path style="fill:#ceb077; stroke:none;" d="M2095 1668L2096 1669L2095 1668z"/>
<path style="fill:#a4af9e; stroke:none;" d="M2098 1670L2099 1671L2098 1670z"/>
<path style="fill:#ceb077; stroke:none;" d="M2099 1671L2100 1672L2099 1671z"/>
<path style="fill:#a4af9e; stroke:none;" d="M2102 1673L2103 1674L2102 1673z"/>
<path style="fill:#ceb077; stroke:none;" d="M2856 1673L2856 1925L2921 1928.96L3029 1930L3073 1929L3090.4 1927.82L3092 1912L3092 1866L3092 1677C3071.79 1679.55 3051.33 1678.15 3031 1679.04C2972.66 1681.59 2914.13 1677.59 2856 1673M2103 1674L2104 1675L2103 1674z"/>
<path style="fill:#a4af9e; stroke:none;" d="M2105 1675L2106 1676L2105 1675z"/>
<path style="fill:#ceb077; stroke:none;" d="M2106 1676L2107 1677L2106 1676z"/>
<path style="fill:#a4af9e; stroke:none;" d="M2109 1678L2110 1679L2109 1678z"/>
<path style="fill:#ceb077; stroke:none;" d="M2110 1679L2111 1680L2110 1679z"/>
<path style="fill:#a4af9e; stroke:none;" d="M2112 1680L2113 1681L2112 1680z"/>
<path style="fill:#ceb077; stroke:none;" d="M2113 1681L2114 1682L2113 1681z"/>
<path style="fill:#a4af9e; stroke:none;" d="M726 1682L726 1877L726 1931C726 1937.12 723.885 1948.03 726.603 1953.58C729.137 1958.75 743.804 1961.52 749 1963.34C770.564 1970.9 792.285 1977.9 814 1985C871.596 2003.82 931.44 2016.69 991 2027.42C1028.23 2034.14 1068.11 2042.69 1106 2043L1106 1791C1031.07 1777.08 957.021 1766.99 884 1743.66C849.544 1732.65 815.367 1720.58 782 1706.58C763.636 1698.87 745.059 1687.49 726 1682M2116 1683L2117 1684L2116 1683M2119 1685L2120 1686L2119 1685z"/>
<path style="fill:#ceb077; stroke:none;" d="M2120 1686L2121 1687L2120 1686z"/>
<path style="fill:#a4af9e; stroke:none;" d="M2122 1687L2123 1688L2122 1687z"/>
<path style="fill:#ceb077; stroke:none;" d="M2123 1688L2124 1689L2123 1688z"/>
<path style="fill:#a4af9e; stroke:none;" d="M2125 1689L2126 1690L2125 1689z"/>
<path style="fill:#ceb077; stroke:none;" d="M2126 1690L2127 1691L2126 1690z"/>
<path style="fill:#a4af9e; stroke:none;" d="M2128 1691L2129 1692L2128 1691z"/>
<path style="fill:#ceb077; stroke:none;" d="M2129 1692L2130 1693L2129 1692z"/>
<path style="fill:#a4af9e; stroke:none;" d="M2132 1694L2133 1695L2132 1694M2135 1696L2136 1697L2135 1696M2138 1698L2139 1699L2138 1698M2141 1700L2142 1701L2141 1700M2143 1701L2144 1702L2143 1701z"/>
<path style="fill:#ceb077; stroke:none;" d="M2144 1702L2145 1703L2144 1702z"/>
<path style="fill:#a4af9e; stroke:none;" d="M2146 1703L2147 1704L2146 1703z"/>
<path style="fill:#ceb077; stroke:none;" d="M2147 1704L2148 1705L2147 1704z"/>
<path style="fill:#a4af9e; stroke:none;" d="M2149 1705L2150 1706L2149 1705z"/>
<path style="fill:#ceb077; stroke:none;" d="M2150 1706L2151 1707L2150 1706z"/>
<path style="fill:#a4af9e; stroke:none;" d="M2152 1707L2153 1708L2152 1707z"/>
<path style="fill:#ceb077; stroke:none;" d="M2153 1708L2154 1709L2153 1708z"/>
<path style="fill:#a4af9e; stroke:none;" d="M2155 1709L2156 1710L2155 1709M2157 1710L2158 1711L2157 1710z"/>
<path style="fill:#ceb077; stroke:none;" d="M2158 1711L2159 1712L2158 1711z"/>
<path style="fill:#a4af9e; stroke:none;" d="M2160 1712L2161 1713L2160 1712z"/>
<path style="fill:#ceb077; stroke:none;" d="M2161 1713L2162 1714L2161 1713z"/>
<path style="fill:#a4af9e; stroke:none;" d="M2163 1714L2164 1715L2163 1714M2165 1715L2166 1716L2165 1715z"/>
<path style="fill:#ceb077; stroke:none;" d="M2166 1716L2167 1717L2166 1716z"/>
<path style="fill:#a4af9e; stroke:none;" d="M2168 1717L2169 1718L2168 1717z"/>
<path style="fill:#ceb077; stroke:none;" d="M2169 1718L2170 1719L2169 1718z"/>
<path style="fill:#a4af9e; stroke:none;" d="M2171 1719L2172 1720L2171 1719M2173 1720L2174 1721L2173 1720z"/>
<path style="fill:#ceb077; stroke:none;" d="M2174 1721L2175 1722L2174 1721z"/>
<path style="fill:#a4af9e; stroke:none;" d="M2176 1722L2177 1723L2176 1722M2178 1723L2179 1724L2178 1723z"/>
<path style="fill:#ceb077; stroke:none;" d="M2179 1724L2180 1725L2179 1724z"/>
<path style="fill:#a4af9e; stroke:none;" d="M2181 1725L2182 1726L2181 1725z"/>
<path style="fill:#ceb077; stroke:none;" d="M1106 1791L1106 2043C1127.55 2047 1150.2 2046.6 1172 2048.09C1232.6 2052.24 1292.47 2048.5 1353 2048L1353 1797L1228 1799.96L1106 1791z"/>
</svg>
