<svg id="svg" version="1.1" xmlns="http://www.w3.org/2000/svg" xmlns:xlink="http://www.w3.org/1999/xlink" width="400" height="195.42639352072416" viewBox="0, 0, 400,195.42639352072416"><g id="svgg"><path id="path0" d="M111.667 0.178 C 108.999 0.338,103.329 0.819,102.869 0.923 C 102.660 0.970,101.347 1.158,99.952 1.340 C 94.373 2.067,88.396 3.242,83.083 4.657 C 82.350 4.852,81.300 5.123,80.750 5.258 C 80.200 5.394,79.563 5.574,79.333 5.659 C 79.104 5.743,78.129 6.046,77.167 6.333 C 76.204 6.619,75.267 6.920,75.083 7.002 C 74.900 7.084,74.412 7.242,74.000 7.354 C 73.587 7.465,73.179 7.619,73.092 7.695 C 73.005 7.771,72.833 7.833,72.711 7.833 C 72.429 7.833,67.793 9.587,66.043 10.356 C 65.655 10.527,65.294 10.667,65.241 10.667 C 65.188 10.667,64.719 10.862,64.198 11.101 C 63.676 11.340,62.913 11.671,62.500 11.837 C 62.087 12.003,61.300 12.369,60.750 12.650 C 60.200 12.932,59.675 13.163,59.583 13.165 C 59.474 13.166,59.417 17.857,59.417 26.901 C 59.417 36.010,59.473 40.603,59.583 40.539 C 59.675 40.486,60.050 40.244,60.417 40.001 C 62.246 38.788,71.288 34.000,71.748 34.000 C 71.806 34.000,72.281 33.805,72.802 33.567 C 74.434 32.822,74.797 32.667,74.911 32.667 C 74.972 32.667,75.431 32.479,75.932 32.250 C 76.433 32.021,76.938 31.833,77.055 31.833 C 77.171 31.833,77.338 31.770,77.425 31.692 C 77.512 31.615,78.296 31.308,79.167 31.010 C 80.037 30.712,80.900 30.405,81.083 30.329 C 81.267 30.252,81.717 30.104,82.083 30.000 C 82.450 29.896,82.900 29.747,83.083 29.670 C 83.587 29.458,88.151 28.114,89.333 27.829 C 89.746 27.729,90.683 27.500,91.417 27.320 C 94.438 26.576,98.362 25.812,101.583 25.341 C 102.775 25.167,103.975 24.979,104.250 24.924 C 105.214 24.732,113.696 24.003,115.293 23.976 L 115.836 23.967 115.793 12.025 L 115.750 0.083 114.667 0.073 C 114.071 0.067,112.721 0.114,111.667 0.178 M115.625 17.958 C 115.600 21.235,115.579 18.554,115.579 12.000 C 115.579 5.446,115.600 2.765,115.625 6.042 C 115.650 9.319,115.650 14.681,115.625 17.958 M277.667 39.283 C 274.372 39.415,267.208 39.997,264.833 40.327 C 264.146 40.422,262.721 40.611,261.667 40.747 C 254.550 41.663,245.979 43.420,239.417 45.309 C 238.775 45.493,237.800 45.765,237.250 45.912 C 236.700 46.059,236.100 46.243,235.917 46.321 C 235.733 46.399,234.571 46.782,233.333 47.171 C 232.096 47.561,230.858 47.980,230.583 48.101 C 230.308 48.223,229.783 48.419,229.417 48.537 L 228.750 48.751 228.667 61.694 L 228.583 74.636 229.167 74.378 C 231.719 73.245,234.664 72.055,235.917 71.649 C 236.742 71.381,237.567 71.094,237.750 71.011 C 238.260 70.779,241.987 69.555,242.833 69.342 C 243.246 69.238,243.733 69.084,243.917 68.999 C 244.272 68.836,244.771 68.699,248.833 67.655 C 255.324 65.987,261.950 64.782,268.417 64.094 C 269.700 63.958,271.425 63.769,272.250 63.675 C 273.075 63.580,275.400 63.424,277.417 63.328 C 279.433 63.232,281.252 63.117,281.458 63.073 L 281.833 62.994 281.833 51.080 L 281.833 39.167 280.375 39.200 C 279.573 39.218,278.354 39.255,277.667 39.283 M282.039 51.125 C 282.060 57.702,282.097 61.171,282.122 58.833 C 282.237 47.786,282.238 39.167,282.125 39.167 C 282.056 39.167,282.017 44.548,282.039 51.125 M225.292 76.095 C 224.645 76.446,224.719 76.567,225.375 76.233 C 226.003 75.914,226.114 75.831,225.903 75.840 C 225.819 75.844,225.544 75.959,225.292 76.095 M208.500 135.385 C 208.500 135.414,208.744 135.658,209.042 135.927 L 209.583 136.417 209.094 135.875 C 208.638 135.370,208.500 135.257,208.500 135.385 M228.667 161.232 C 228.667 175.021,228.625 174.351,229.500 174.550 C 229.729 174.602,231.039 175.034,232.412 175.510 C 234.773 176.329,235.463 176.546,238.250 177.355 C 248.600 180.358,260.026 182.411,271.000 183.239 C 272.787 183.373,275.300 183.563,276.583 183.661 C 279.176 183.857,281.169 183.886,281.570 183.732 C 281.807 183.641,281.833 182.429,281.833 171.732 L 281.833 159.833 280.375 159.835 C 279.573 159.836,278.017 159.759,276.917 159.664 C 275.817 159.569,273.567 159.379,271.917 159.242 C 264.275 158.606,256.645 157.330,249.333 155.463 C 248.279 155.194,247.117 154.903,246.750 154.816 C 245.414 154.499,237.917 152.091,236.167 151.416 C 234.314 150.702,232.007 149.763,231.167 149.381 C 230.662 149.152,229.894 148.823,229.458 148.651 L 228.667 148.338 228.667 161.232 M191.833 152.385 C 191.833 152.414,192.077 152.658,192.375 152.927 L 192.917 153.417 192.427 152.875 C 191.971 152.370,191.833 152.257,191.833 152.385 M59.460 168.273 C 59.495 179.098,59.461 181.834,59.294 181.838 C 59.178 181.841,59.683 182.137,60.417 182.495 C 64.633 184.557,70.757 186.929,77.000 188.918 C 78.933 189.534,81.427 190.224,84.250 190.924 C 85.533 191.243,86.808 191.573,87.083 191.659 C 87.358 191.744,88.221 191.939,89.000 192.091 C 89.779 192.243,91.129 192.512,92.000 192.687 C 94.032 193.096,97.067 193.591,99.500 193.910 C 100.554 194.049,101.904 194.237,102.500 194.329 C 103.096 194.421,104.558 194.572,105.750 194.665 C 106.942 194.758,108.704 194.910,109.667 195.002 C 110.629 195.095,112.335 195.194,113.458 195.224 L 115.500 195.277 115.500 183.329 L 115.500 171.381 114.476 171.274 C 113.912 171.215,113.068 171.167,112.601 171.168 C 112.133 171.169,111.037 171.091,110.167 170.994 C 109.296 170.897,107.533 170.711,106.250 170.580 C 99.628 169.904,92.097 168.384,85.500 166.392 C 83.265 165.717,79.634 164.505,79.058 164.241 C 78.769 164.108,78.475 164.000,78.405 164.000 C 78.278 164.000,76.396 163.290,75.750 162.999 C 75.567 162.916,74.929 162.650,74.333 162.408 C 72.531 161.676,72.221 161.532,68.333 159.619 C 66.271 158.604,63.767 157.299,62.770 156.720 C 61.773 156.141,60.892 155.667,60.812 155.667 C 60.732 155.667,60.667 155.579,60.667 155.472 C 60.667 155.365,60.617 155.327,60.556 155.388 C 60.496 155.449,60.214 155.322,59.931 155.106 L 59.417 154.713 59.460 168.273 M282.079 171.833 C 282.079 178.387,282.100 181.069,282.125 177.792 C 282.150 174.515,282.150 169.152,282.125 165.875 C 282.100 162.598,282.079 165.279,282.079 171.833 M115.705 183.375 C 115.727 189.998,115.764 193.504,115.788 191.167 C 115.904 180.128,115.905 171.333,115.792 171.333 C 115.723 171.333,115.684 176.752,115.705 183.375 " stroke="none" fill="#91abac" fill-rule="evenodd"></path><path id="path1" d="M59.000 13.494 C 58.862 13.572,57.813 14.090,56.667 14.646 C 54.407 15.741,52.536 16.742,50.359 18.018 C 49.594 18.466,48.907 18.833,48.832 18.833 C 48.756 18.833,48.669 18.890,48.639 18.958 C 48.582 19.086,46.876 20.167,46.732 20.167 C 46.688 20.167,46.562 20.244,46.451 20.339 C 46.341 20.434,45.313 21.128,44.167 21.883 C 43.021 22.638,41.622 23.592,41.057 24.003 C 40.493 24.414,39.865 24.863,39.663 25.000 C 39.236 25.290,38.241 26.041,37.728 26.460 C 37.532 26.619,37.163 26.900,36.909 27.083 C 33.609 29.459,26.717 35.854,23.167 39.834 C 22.479 40.605,21.646 41.539,21.315 41.910 C 20.850 42.431,18.917 44.845,17.706 46.417 C 15.415 49.390,10.500 57.022,10.500 57.606 C 10.500 57.716,10.436 57.831,10.358 57.861 C 10.233 57.910,7.651 63.062,6.930 64.701 C 3.934 71.510,1.688 79.561,0.756 86.833 C 0.620 87.888,0.415 89.462,0.299 90.333 C 0.007 92.534,0.012 102.494,0.306 104.917 C 1.190 112.178,1.692 114.823,3.251 120.417 C 3.573 121.574,4.775 125.259,4.990 125.750 C 5.070 125.933,5.453 126.908,5.841 127.917 C 7.159 131.345,11.072 139.307,11.792 140.025 C 11.906 140.140,12.000 140.293,12.000 140.365 C 12.000 140.522,13.643 143.114,15.130 145.304 C 16.291 147.013,19.126 150.783,20.220 152.070 C 20.603 152.521,21.206 153.234,21.560 153.653 C 24.253 156.851,30.143 162.748,32.430 164.539 C 32.696 164.747,33.031 165.029,33.174 165.167 C 33.318 165.304,33.797 165.717,34.239 166.083 C 34.681 166.450,35.126 166.830,35.229 166.927 C 35.520 167.202,40.649 171.036,41.583 171.678 C 42.042 171.993,42.454 172.289,42.500 172.336 C 42.632 172.472,45.280 174.203,46.833 175.168 C 47.612 175.652,48.530 176.225,48.871 176.441 C 49.213 176.657,49.569 176.833,49.663 176.833 C 49.757 176.833,49.833 176.890,49.833 176.959 C 49.833 177.029,50.052 177.182,50.319 177.300 C 50.586 177.419,51.693 178.020,52.778 178.638 C 55.250 180.045,58.858 181.833,59.224 181.833 C 59.479 181.833,59.500 180.794,59.500 168.359 C 59.500 153.862,59.540 154.590,58.731 154.313 C 58.629 154.279,58.329 154.082,58.065 153.876 C 57.800 153.670,57.096 153.177,56.500 152.781 C 55.904 152.384,55.154 151.878,54.833 151.655 C 54.123 151.162,51.488 149.164,51.232 148.923 C 51.130 148.828,50.764 148.525,50.420 148.250 C 46.836 145.390,42.620 141.309,39.830 138.000 C 39.328 137.404,38.842 136.835,38.750 136.735 C 38.658 136.635,38.396 136.304,38.167 136.000 C 37.938 135.696,37.674 135.365,37.580 135.265 C 36.918 134.556,34.918 131.702,33.305 129.167 C 31.795 126.791,29.428 122.197,28.498 119.833 C 28.299 119.329,27.989 118.542,27.808 118.083 C 26.475 114.709,25.279 110.215,24.748 106.583 C 24.614 105.667,24.425 104.467,24.327 103.917 C 23.710 100.438,24.084 91.006,24.997 87.000 C 26.752 79.302,28.771 73.972,32.162 68.083 C 33.073 66.503,35.130 63.258,35.544 62.750 C 35.619 62.658,36.208 61.871,36.853 61.000 C 37.498 60.129,38.227 59.192,38.471 58.916 C 38.716 58.641,39.132 58.154,39.396 57.833 C 42.076 54.572,46.368 50.343,49.812 47.569 C 50.030 47.393,50.330 47.129,50.479 46.981 C 50.808 46.655,54.551 43.850,55.250 43.406 C 55.525 43.231,55.841 43.012,55.953 42.919 C 56.064 42.826,56.251 42.672,56.369 42.576 C 56.487 42.480,57.056 42.111,57.633 41.756 C 58.210 41.401,58.751 40.991,58.836 40.847 C 58.921 40.702,58.992 40.649,58.995 40.729 C 58.998 40.809,59.112 40.781,59.250 40.667 C 59.522 40.441,59.646 13.322,59.375 13.343 C 59.306 13.349,59.137 13.417,59.000 13.494 M228.000 48.990 C 227.337 49.266,226.752 49.497,226.500 49.583 C 226.454 49.599,226.206 49.699,225.947 49.806 C 225.689 49.913,225.408 50.000,225.322 50.000 C 225.237 50.000,225.167 50.066,225.167 50.146 C 225.167 50.227,224.923 50.389,224.625 50.505 C 220.781 52.014,213.718 55.359,210.583 57.157 C 208.121 58.569,205.141 60.350,204.833 60.594 C 204.696 60.703,204.096 61.053,203.500 61.372 C 202.640 61.831,200.815 63.084,199.249 64.288 C 199.157 64.359,198.444 64.900,197.666 65.490 C 196.887 66.080,195.984 66.792,195.658 67.073 C 195.333 67.354,194.620 67.955,194.075 68.410 C 192.831 69.447,187.547 74.725,186.328 76.148 C 175.716 88.538,170.930 102.934,172.666 117.248 C 172.866 118.897,173.060 120.296,173.098 120.357 C 173.135 120.417,173.274 121.031,173.406 121.720 C 174.282 126.298,176.586 132.220,179.418 137.167 C 180.398 138.879,182.559 142.177,183.083 142.760 C 183.175 142.862,183.400 143.153,183.583 143.407 C 188.242 149.857,198.040 158.378,206.946 163.725 C 207.512 164.064,208.000 164.403,208.029 164.477 C 208.238 164.994,216.488 169.211,221.500 171.362 C 223.886 172.385,223.855 172.373,225.167 172.880 C 227.835 173.913,228.509 174.167,228.585 174.167 C 228.630 174.167,228.662 168.335,228.657 161.208 L 228.647 148.250 226.615 147.262 C 225.498 146.719,224.520 146.290,224.442 146.309 C 224.365 146.328,223.840 146.087,223.276 145.773 C 222.712 145.459,221.875 144.995,221.417 144.743 C 218.503 143.138,213.810 139.931,211.084 137.683 C 209.355 136.258,205.168 132.184,205.165 131.925 C 205.163 131.829,204.869 131.433,204.509 131.047 C 200.769 127.020,197.769 121.176,196.742 115.917 C 196.047 112.360,196.601 104.899,197.670 103.417 C 197.736 103.325,197.886 102.950,198.002 102.583 C 198.605 100.693,200.634 96.978,202.372 94.584 C 204.752 91.305,209.230 86.871,213.277 83.786 C 213.842 83.355,214.330 82.944,214.361 82.873 C 214.650 82.204,222.690 77.389,227.206 75.179 L 228.663 74.467 228.706 61.567 C 228.730 54.472,228.750 48.669,228.750 48.672 C 228.750 48.675,228.412 48.818,228.000 48.990 " stroke="none" fill="#39acdc" fill-rule="evenodd"></path><path id="path2" d="M115.625 0.092 C 115.556 0.163,115.518 5.553,115.540 12.069 L 115.580 23.917 115.667 12.000 L 115.753 0.083 115.793 12.020 L 115.833 23.957 122.375 24.046 C 125.973 24.095,129.554 24.216,130.333 24.316 C 131.112 24.415,132.837 24.612,134.167 24.753 C 138.373 25.201,144.756 26.287,147.750 27.064 C 147.933 27.112,149.058 27.386,150.250 27.673 C 151.442 27.960,152.567 28.260,152.750 28.341 C 152.933 28.421,153.421 28.571,153.833 28.674 C 155.464 29.083,158.474 30.070,161.583 31.215 C 163.926 32.077,164.686 32.376,165.917 32.919 C 166.192 33.040,167.317 33.532,168.417 34.012 C 170.519 34.930,175.688 37.496,175.837 37.696 C 175.884 37.760,176.109 37.891,176.337 37.987 C 176.564 38.083,177.050 38.346,177.417 38.573 C 177.783 38.799,178.608 39.292,179.250 39.667 C 179.892 40.043,180.642 40.494,180.917 40.670 C 181.192 40.846,181.642 41.115,181.917 41.268 C 182.192 41.421,182.454 41.594,182.500 41.652 C 182.546 41.711,183.144 42.132,183.830 42.588 C 186.344 44.260,190.851 47.769,192.911 49.658 C 196.100 52.583,196.676 53.155,198.752 55.452 C 201.095 58.046,201.148 58.107,202.407 59.708 C 203.785 61.461,203.350 61.455,206.053 59.754 C 211.215 56.506,217.866 53.155,224.549 50.435 L 225.181 50.177 224.887 49.714 C 224.462 49.043,222.462 46.289,222.212 46.030 C 222.096 45.909,222.000 45.759,221.999 45.696 C 221.999 45.634,221.755 45.316,221.458 44.989 C 221.160 44.663,220.646 44.045,220.315 43.617 C 218.099 40.749,212.726 35.083,209.679 32.400 C 209.273 32.042,208.780 31.600,208.583 31.417 C 207.616 30.516,204.694 28.113,203.001 26.826 C 202.222 26.234,201.510 25.692,201.418 25.620 C 199.217 23.920,193.162 19.833,192.843 19.833 C 192.746 19.833,192.667 19.758,192.667 19.667 C 192.667 19.575,192.597 19.500,192.512 19.500 C 192.427 19.500,191.747 19.125,191.000 18.667 C 190.253 18.208,189.616 17.833,189.584 17.833 C 189.552 17.833,188.864 17.448,188.055 16.978 C 185.307 15.380,179.426 12.505,175.833 11.003 C 175.146 10.716,174.433 10.413,174.250 10.330 C 172.116 9.368,164.499 6.723,160.833 5.671 C 160.146 5.473,159.246 5.211,158.833 5.088 C 158.421 4.964,157.108 4.630,155.917 4.345 C 154.725 4.059,153.487 3.750,153.167 3.657 C 152.846 3.563,152.021 3.375,151.333 3.239 C 150.646 3.102,149.333 2.841,148.417 2.658 C 144.486 1.873,139.457 1.141,135.333 0.755 C 133.912 0.621,132.000 0.428,131.083 0.324 C 129.120 0.101,115.807 -0.098,115.625 0.092 M281.873 51.028 C 281.842 60.397,281.788 62.990,281.625 63.056 C 281.510 63.103,283.854 63.146,286.833 63.154 C 292.343 63.167,297.146 63.355,300.000 63.670 C 300.871 63.766,302.633 63.957,303.917 64.094 C 309.706 64.711,316.837 65.964,322.250 67.315 C 322.983 67.498,323.921 67.729,324.333 67.829 C 325.802 68.183,329.717 69.357,332.167 70.179 C 334.776 71.054,335.986 71.486,336.609 71.765 C 336.897 71.894,337.197 72.000,337.275 72.001 C 337.353 72.002,337.616 72.106,337.859 72.233 C 338.102 72.360,338.578 72.555,338.917 72.667 C 339.255 72.778,339.731 72.974,339.974 73.101 C 340.218 73.227,340.480 73.332,340.558 73.332 C 341.169 73.337,350.677 78.167,352.833 79.569 C 357.822 82.812,359.708 84.135,360.929 85.250 C 361.130 85.433,361.673 85.883,362.135 86.250 C 363.139 87.047,367.323 91.247,368.256 92.396 C 368.619 92.843,368.992 93.293,369.083 93.396 C 371.773 96.418,374.406 101.775,375.608 106.667 C 376.332 109.613,375.961 115.977,374.889 119.000 C 372.768 124.981,369.869 129.340,364.636 134.418 C 362.824 136.177,361.939 136.955,360.120 138.385 C 359.865 138.586,359.565 138.828,359.453 138.923 C 359.341 139.018,358.875 139.355,358.417 139.673 C 357.958 139.990,357.546 140.287,357.500 140.333 C 357.168 140.665,353.867 142.833,353.693 142.833 C 353.602 142.833,353.503 142.894,353.472 142.968 C 353.318 143.342,344.811 147.852,342.083 149.006 C 341.900 149.084,341.188 149.382,340.500 149.670 C 339.813 149.957,339.025 150.291,338.750 150.411 C 338.475 150.531,338.063 150.685,337.833 150.752 C 337.604 150.819,337.342 150.928,337.250 150.993 C 337.158 151.059,336.371 151.357,335.500 151.656 C 334.629 151.955,333.767 152.259,333.583 152.332 C 332.376 152.815,328.416 154.050,326.083 154.671 C 325.442 154.842,324.317 155.142,323.583 155.338 C 321.398 155.922,317.004 156.898,314.500 157.354 C 308.382 158.470,304.703 158.913,295.250 159.673 C 293.967 159.776,290.423 159.873,287.375 159.889 L 281.834 159.917 281.833 171.778 C 281.833 181.111,281.789 183.657,281.625 183.723 C 281.227 183.884,293.580 183.832,295.825 183.664 C 305.151 182.964,307.489 182.731,312.417 182.011 C 319.989 180.905,327.712 179.251,333.957 177.400 C 334.760 177.162,335.754 176.871,336.167 176.755 C 337.324 176.427,339.213 175.825,339.583 175.666 C 339.767 175.587,340.217 175.437,340.583 175.331 C 340.950 175.225,341.486 175.032,341.775 174.902 C 342.064 174.773,342.402 174.666,342.525 174.666 C 342.649 174.665,342.942 174.564,343.178 174.441 C 343.413 174.319,343.823 174.164,344.089 174.097 C 344.354 174.030,344.889 173.831,345.277 173.654 C 345.664 173.478,346.031 173.333,346.091 173.333 C 346.151 173.333,346.436 173.226,346.725 173.095 C 347.014 172.964,347.775 172.654,348.417 172.407 C 349.058 172.159,349.898 171.817,350.283 171.645 C 350.667 171.474,351.018 171.333,351.063 171.333 C 351.192 171.333,354.187 169.917,357.167 168.447 C 361.173 166.470,365.151 164.174,369.167 161.521 C 370.654 160.538,375.722 156.805,376.188 156.349 C 376.337 156.203,376.637 155.940,376.855 155.765 C 380.299 152.990,385.723 147.563,387.295 145.319 C 387.422 145.139,387.782 144.712,388.095 144.371 C 388.409 144.029,388.665 143.705,388.666 143.651 C 388.666 143.596,388.824 143.371,389.016 143.151 C 390.941 140.945,396.667 130.702,396.667 129.463 C 396.667 129.374,396.776 129.064,396.910 128.775 C 397.213 128.122,397.854 126.143,398.296 124.497 C 399.661 119.414,400.066 115.937,399.954 110.250 C 399.872 106.061,399.780 105.269,398.816 100.500 C 398.509 98.980,397.389 95.395,396.551 93.250 C 395.421 90.357,392.019 83.848,390.989 82.608 C 390.902 82.503,390.457 81.892,390.001 81.250 C 387.771 78.111,386.964 77.124,384.250 74.215 C 381.659 71.438,378.621 68.606,375.750 66.291 C 372.539 63.702,364.905 58.500,364.316 58.500 C 364.234 58.500,364.167 58.443,364.167 58.374 C 364.167 58.305,363.923 58.142,363.625 58.012 C 363.327 57.883,363.046 57.727,363.000 57.665 C 362.895 57.525,360.601 56.291,357.583 54.753 C 355.371 53.625,352.223 52.193,347.889 50.343 C 347.232 50.063,346.612 49.833,346.511 49.833 C 346.411 49.833,346.199 49.757,346.039 49.665 C 345.255 49.208,337.417 46.530,335.333 46.008 C 334.921 45.904,334.433 45.748,334.250 45.661 C 334.067 45.574,333.467 45.393,332.917 45.257 C 332.367 45.122,331.317 44.853,330.583 44.660 C 322.331 42.485,313.430 40.889,305.083 40.090 C 303.617 39.949,301.779 39.761,301.000 39.672 C 298.526 39.389,291.070 39.144,286.583 39.198 L 282.250 39.250 282.168 51.167 L 282.086 63.083 281.999 51.083 L 281.913 39.083 281.873 51.028 M232.917 72.765 C 229.540 74.142,224.594 76.548,221.488 78.325 C 219.493 79.466,214.333 82.762,214.333 82.895 C 214.333 82.916,214.486 83.605,214.673 84.425 C 215.022 85.954,215.540 88.780,215.879 91.000 C 216.132 92.663,216.132 102.675,215.878 104.333 C 215.490 106.871,215.153 108.780,214.894 109.917 C 214.467 111.786,213.828 114.222,213.670 114.583 C 213.589 114.767,213.437 115.217,213.331 115.583 C 213.225 115.950,213.032 116.486,212.902 116.775 C 212.773 117.064,212.667 117.358,212.667 117.429 C 212.667 117.544,212.036 119.230,211.674 120.083 C 210.530 122.780,206.549 130.116,205.699 131.094 C 205.078 131.809,205.114 131.938,206.289 133.184 C 209.945 137.061,216.040 141.624,222.077 145.003 C 224.441 146.326,224.402 146.322,225.089 145.311 C 225.360 144.911,225.622 144.546,225.671 144.500 C 225.833 144.349,227.955 140.944,228.840 139.417 C 229.982 137.447,232.168 133.189,232.832 131.643 C 233.122 130.968,233.461 130.190,233.586 129.912 C 234.202 128.547,235.345 125.561,236.073 123.417 C 236.657 121.696,237.591 118.448,237.943 116.917 C 239.396 110.583,239.870 106.982,240.281 99.138 C 240.413 96.617,239.929 89.303,239.406 85.917 C 238.921 82.777,238.096 78.784,237.485 76.625 C 236.628 73.597,236.461 73.032,236.226 72.375 C 235.910 71.492,236.095 71.470,232.917 72.765 M187.917 149.759 C 187.286 150.284,187.254 150.308,186.254 151.005 C 185.798 151.323,185.348 151.642,185.254 151.715 C 184.383 152.385,182.705 153.503,180.833 154.660 C 179.596 155.425,178.380 156.189,178.132 156.359 C 177.883 156.528,177.646 156.667,177.604 156.667 C 177.562 156.667,176.795 157.082,175.899 157.589 C 174.076 158.621,169.491 160.892,167.833 161.583 C 167.237 161.831,166.450 162.167,166.083 162.329 C 165.717 162.491,164.892 162.825,164.250 163.071 C 163.608 163.316,162.933 163.588,162.750 163.674 C 162.337 163.868,159.431 164.916,158.083 165.357 C 151.850 167.398,145.021 169.032,139.000 169.923 C 138.129 170.052,136.929 170.235,136.333 170.330 C 135.737 170.426,133.975 170.617,132.417 170.756 C 130.858 170.895,129.438 171.053,129.260 171.109 C 129.082 171.164,126.007 171.256,122.426 171.313 L 115.917 171.417 115.874 183.399 L 115.831 195.382 122.457 195.288 C 126.102 195.237,129.796 195.113,130.667 195.014 C 131.537 194.914,133.525 194.717,135.083 194.575 C 141.440 193.996,147.674 192.957,154.417 191.353 C 156.614 190.830,160.371 189.835,161.083 189.587 C 161.450 189.460,162.425 189.153,163.250 188.905 C 164.075 188.657,165.387 188.235,166.167 187.966 C 166.946 187.697,167.846 187.399,168.167 187.305 C 168.487 187.210,168.825 187.075,168.917 187.006 C 169.008 186.936,169.308 186.826,169.583 186.760 C 169.858 186.695,170.308 186.542,170.583 186.420 C 170.858 186.299,171.308 186.123,171.583 186.029 C 172.252 185.801,176.974 183.845,178.328 183.235 C 182.419 181.393,191.304 176.706,191.472 176.300 C 191.503 176.227,191.598 176.167,191.684 176.167 C 191.770 176.167,192.158 175.965,192.545 175.719 C 192.933 175.473,193.662 175.011,194.167 174.692 C 199.077 171.584,207.833 165.007,207.833 164.427 C 207.833 164.386,207.140 163.927,206.292 163.405 C 200.807 160.031,195.418 155.861,191.066 151.625 C 188.464 149.092,188.613 149.180,187.917 149.759 M282.125 177.792 C 282.100 181.069,282.079 178.387,282.079 171.833 C 282.079 165.279,282.100 162.598,282.125 165.875 C 282.150 169.152,282.150 174.515,282.125 177.792 M115.579 183.333 C 115.579 189.979,115.600 192.698,115.625 189.375 C 115.650 186.052,115.650 180.615,115.625 177.292 C 115.600 173.969,115.579 176.688,115.579 183.333 " stroke="none" fill="#faa02d" fill-rule="evenodd"></path></g></svg>