<svg width="14" height="12" viewBox="0 0 14 12" fill="none" xmlns="http://www.w3.org/2000/svg">
<path fill-rule="evenodd" clip-rule="evenodd" d="M13.0285 8.53725L10.4829 11.0828C10.3267 11.239 10.0734 11.239 9.91723 11.0828L7.37165 8.53725C7.21544 8.38104 7.21544 8.12777 7.37165 7.97156C7.52786 7.81535 7.78112 7.81535 7.93733 7.97156L9.80008 9.8343V4.79999C9.80008 4.57907 9.97916 4.39999 10.2001 4.39999C10.421 4.39999 10.6001 4.57907 10.6001 4.79999V9.8343L12.4628 7.97156C12.619 7.81535 12.8723 7.81535 13.0285 7.97156C13.1847 8.12777 13.1847 8.38104 13.0285 8.53725Z" fill="#A0B4B4"/>
<path fill-rule="evenodd" clip-rule="evenodd" d="M0.97165 3.46273L3.51723 0.917145C3.67344 0.760935 3.92671 0.760935 4.08292 0.917145L6.6285 3.46273C6.78471 3.61894 6.78471 3.87221 6.6285 4.02842C6.47229 4.18463 6.21903 4.18463 6.06282 4.02842L4.20008 2.16567V7.19999C4.20008 7.4209 4.02099 7.59999 3.80008 7.59999C3.57916 7.59999 3.40008 7.4209 3.40008 7.19999V2.16567L1.53733 4.02842C1.38113 4.18462 1.12786 4.18462 0.97165 4.02842C0.81544 3.87221 0.81544 3.61894 0.97165 3.46273Z" fill="#A0B4B4"/>
</svg>
